<?xml version="1.0" encoding="utf-8"?>
<!-- Generator: Adobe Illustrator 20.0.0, SVG Export Plug-In . SVG Version: 6.00 Build 0)  -->
<svg version="1.1" xmlns="http://www.w3.org/2000/svg" xmlns:xlink="http://www.w3.org/1999/xlink" x="0px" y="0px"
	 viewBox="0 0 222.6 38" style="enable-background:new 0 0 222.6 38;" xml:space="preserve">
<style type="text/css">
	.st0{fill:#FFFFFF;}
	.st1{fill:#F36C2B;stroke:#000000;stroke-miterlimit:10;}
</style>
<g id="Layer_2">
	<g>
		<path class="st0" d="M126.3,25.8h-2l2.5-14.2H122l0.3-1.8h11.5l-0.3,1.8h-4.8L126.3,25.8z"/>
		<path class="st0" d="M140.6,20h-4l-1,5.8h-2l2.8-16h5.7c3,0,4.2,1.2,4.2,3.1c0,0.3,0,0.6-0.1,0.9l-0.4,2.3c-0.3,1.9-1,3-3.2,3.6
			l3.1,6.1h-2.2L140.6,20z M144.3,13.8c0-0.3,0.1-0.5,0.1-0.7c0-1.2-0.7-1.5-2.4-1.5h-3.9l-1.2,6.6h3.9c2,0,2.8-0.6,3-2.2
			L144.3,13.8z"/>
		<path class="st0" d="M158.4,21.9h-6.7l-2,3.9h-2.1l8-16h2.9l2.5,16h-2.1L158.4,21.9z M152.5,20.2h5.6l-1.2-9L152.5,20.2z"/>
		<path class="st0" d="M163.6,22.3c0-0.4,0-0.7,0.1-1.2l1.2-6.9c0.6-3.3,2.3-4.7,6.2-4.7c1.2,0,2.8,0.2,4,0.5l-0.4,1.7
			c-1.2-0.3-2.7-0.4-3.7-0.4c-2.6,0-3.6,0.7-4.1,3.1l-1.2,6.7c-0.1,0.4-0.1,0.7-0.1,1c0,1.4,0.8,2,3.1,2c1.1,0,2.5-0.1,3.8-0.4
			l0.1,1.7c-1.2,0.3-3,0.5-4.3,0.5C164.9,26,163.6,24.5,163.6,22.3z"/>
		<path class="st0" d="M178.4,9.8h2l-2.8,16h-2L178.4,9.8z M179.6,17.7l6.9-7.8h2.5l-7.2,7.9l4.8,8.1h-2.2L179.6,17.7z"/>
		<path class="st0" d="M192.3,9.8h9.3l-0.3,1.8H194l-0.9,5.1h6.7l-0.3,1.8h-6.7l-1,5.5h7.3l-0.3,1.8h-9.3L192.3,9.8z"/>
		<path class="st0" d="M209.3,20h-4l-1,5.8h-2l2.8-16h5.7c3,0,4.2,1.2,4.2,3.1c0,0.3,0,0.6-0.1,0.9l-0.4,2.3c-0.3,1.9-1,3-3.2,3.6
			l3.1,6.1h-2.2L209.3,20z M213,13.8c0-0.3,0.1-0.5,0.1-0.7c0-1.2-0.7-1.5-2.4-1.5h-3.9l-1.2,6.6h3.9c2,0,2.8-0.6,3-2.2L213,13.8z"
			/>
	</g>
</g>
<g id="Layer_1">
	<g>
		<g>
			<polygon class="st1" points="1,37 12.8,9.3 28.8,9.3 24.3,20 37.8,9.2 48.8,9.2 35.6,20.2 43.2,30.2 52.9,6 30,6 31.8,0.9 
				93.8,0.9 92.3,6 69.2,6 62.7,24.8 78.3,9.3 92.5,9.3 90.2,19.9 102.2,9.3 117,9.3 110.9,37.1 96.1,37.1 97.7,27.1 86.4,37 
				72.7,37.1 74.5,27 63.7,37 28.8,37 21.3,27.1 17.2,37 			"/>
		</g>
	</g>
</g>
</svg>
