<?xml version="1.0" encoding="utf-8"?>
<!-- Generator: Adobe Illustrator 20.0.0, SVG Export Plug-In . SVG Version: 6.00 Build 0)  -->
<svg version="1.1" id="Layer_1" xmlns="http://www.w3.org/2000/svg" xmlns:xlink="http://www.w3.org/1999/xlink" x="0px" y="0px"
	 viewBox="0 0 500 500" style="enable-background:new 0 0 500 500;" xml:space="preserve" width="50" height="50">
<style type="text/css">
	.st0{fill:#F36C2B;}
</style>
<g>
	<path class="st0" d="M247.5,0c-96.7,0-175,78.3-175,175c0,170,163.3,316.7,170,323.3c1.7,1.7,3.3,1.7,5,1.7s3.3,0,5-1.7
		c6.7-6.7,170-153.3,170-323.3C422.5,78.3,344.2,0,247.5,0z M247.5,83.3c50,0,91.7,41.7,91.7,91.7s-41.7,91.7-91.7,91.7
		S155.8,225,155.8,175S197.5,83.3,247.5,83.3z"/>
</g>
</svg>
