<?xml version="1.0" encoding="utf-8"?>
<!-- Generator: Adobe Illustrator 20.0.0, SVG Export Plug-In . SVG Version: 6.00 Build 0)  -->
<svg version="1.1" id="Layer_1" xmlns="http://www.w3.org/2000/svg" xmlns:xlink="http://www.w3.org/1999/xlink" x="0px" y="0px"
	 height="50px" width="50px"
	 viewBox="0 0 50 50" style="enable-background:new 0 0 50 50;" xml:space="preserve">
<style type="text/css">
	.st0{fill:#F36C2B;}
</style>
<g>
	<path d="M26,0C16.3,0,8.5,7.8,8.5,17.5c0,17,16.3,31.7,17,32.3C25.7,50,25.8,50,26,50s0.3,0,0.5-0.2c0.7-0.7,17-15.3,17-32.3
		C43.5,7.8,35.7,0,26,0z M26,8.3c5,0,9.2,4.2,9.2,9.2S31,26.7,26,26.7s-9.2-4.2-9.2-9.2S21,8.3,26,8.3z"/>
</g>
<g>
	<path class="st0" d="M25,0C15.3,0,7.5,7.8,7.5,17.5c0,17,16.3,31.7,17,32.3C24.7,50,24.8,50,25,50s0.3,0,0.5-0.2
		c0.7-0.7,17-15.3,17-32.3C42.5,7.8,34.7,0,25,0z M25,8.3c5,0,9.2,4.2,9.2,9.2S30,26.7,25,26.7s-9.2-4.2-9.2-9.2S20,8.3,25,8.3z"/>
</g>
</svg>
