<?xml version="1.0" encoding="utf-8"?>
<!-- Generator: Adobe Illustrator 20.0.0, SVG Export Plug-In . SVG Version: 6.00 Build 0)  -->
<svg version="1.1" id="Logo_FIXED" xmlns="http://www.w3.org/2000/svg" xmlns:xlink="http://www.w3.org/1999/xlink" x="0px" y="0px"
	 viewBox="0 0 36 30" style="enable-background:new 0 0 36 30;" xml:space="preserve">
<title>Foursquare Logo</title>
<g>
	<defs>
		<rect id="SVGID_4_" x="3.7" y="0.8" width="28.5" height="28.5"/>
	</defs>
	<clipPath id="SVGID_52_">
		<use xlink:href="#SVGID_4_"  style="overflow:visible;"/>
	</clipPath>
	<path class="svg-foursquare-logo" d="M15.6,1.7L4.7,12.6c-1.3,1.3-1.3,3.4,0,4.7l10.9,10.9c1.3,1.3,3.4,1.3,4.7,0l10.9-10.9c1.3-1.3,1.3-3.4,0-4.7
		l-0.1-0.1L19.7,24.1c-0.5,0.5-1.2,0.8-1.9,0.8l-0.5,0l-0.1-0.1c-0.5-0.1-0.9-0.4-1.2-0.7l-7.6-7.6C8,16,7.7,15.3,7.7,14.6
		c0-0.7,0.3-1.4,0.8-1.9l2.2-2.2c0.5-0.5,1.2-0.8,1.9-0.8c0.7,0,1.4,0.3,1.8,0.8l3.5,3.5l7.4-7.4l-4.9-4.9
		C19.1,0.4,16.9,0.4,15.6,1.7"/>
</g>
</svg>
