<?xml version="1.0" encoding="utf-8"?>
<!-- Generator: Adobe Illustrator 20.0.0, SVG Export Plug-In . SVG Version: 6.00 Build 0)  -->
<svg version="1.1" id="Logo_FIXED" xmlns="http://www.w3.org/2000/svg" xmlns:xlink="http://www.w3.org/1999/xlink" x="0px" y="0px"
	 viewBox="0 0 36 30" style="enable-background:new 0 0 36 30;" xml:space="preserve">
<title>Instagram Logo</title>
<g>
	<path d="M18,3.6c3.8,0,4.3,0,5.8,0.1c1.4,0.1,2.1,0.3,2.6,0.5c0.7,0.3,1.1,0.6,1.6,1.1c0.5,0.5,0.8,1,1.1,1.6
		c0.2,0.5,0.4,1.3,0.5,2.6c0.1,1.5,0.1,2,0.1,5.8s0,4.3-0.1,5.8c-0.1,1.4-0.3,2.1-0.5,2.6c-0.3,0.7-0.6,1.1-1.1,1.6
		c-0.5,0.5-1,0.8-1.6,1.1c-0.5,0.2-1.3,0.4-2.6,0.5c-1.5,0.1-2,0.1-5.8,0.1s-4.3,0-5.8-0.1c-1.4-0.1-2.1-0.3-2.6-0.5
		c-0.7-0.3-1.1-0.6-1.6-1.1c-0.5-0.5-0.8-1-1.1-1.6c-0.2-0.5-0.4-1.3-0.5-2.6c-0.1-1.5-0.1-2-0.1-5.8s0-4.3,0.1-5.8
		c0.1-1.4,0.3-2.1,0.5-2.6C7.2,6.2,7.5,5.7,8,5.2c0.5-0.5,1-0.8,1.6-1.1c0.5-0.2,1.3-0.4,2.6-0.5C13.8,3.6,14.2,3.6,18,3.6 M18,1
		c-3.9,0-4.4,0-5.9,0.1c-1.5,0.1-2.6,0.3-3.5,0.7C7.7,2.1,6.9,2.6,6.2,3.4C5.4,4.2,4.9,5,4.5,5.9C4.2,6.8,3.9,7.8,3.8,9.4
		c-0.1,1.5-0.1,2-0.1,5.9c0,3.9,0,4.4,0.1,5.9c0.1,1.5,0.3,2.6,0.7,3.5c0.4,0.9,0.9,1.7,1.6,2.5c0.8,0.8,1.6,1.3,2.5,1.6
		c0.9,0.4,1.9,0.6,3.5,0.7c1.5,0.1,2,0.1,5.9,0.1s4.4,0,5.9-0.1c1.5-0.1,2.6-0.3,3.5-0.7c0.9-0.4,1.7-0.9,2.5-1.6
		c0.8-0.8,1.3-1.6,1.6-2.5c0.4-0.9,0.6-1.9,0.7-3.5c0.1-1.5,0.1-2,0.1-5.9s0-4.4-0.1-5.9c-0.1-1.5-0.3-2.6-0.7-3.5
		c-0.4-0.9-0.9-1.7-1.6-2.5c-0.8-0.8-1.6-1.3-2.5-1.6c-0.9-0.4-1.9-0.6-3.5-0.7C22.4,1,21.9,1,18,1L18,1z"/>
	<path d="M18,7.9c-4,0-7.3,3.3-7.3,7.3s3.3,7.3,7.3,7.3s7.3-3.3,7.3-7.3S22,7.9,18,7.9z M18,20c-2.6,0-4.7-2.1-4.7-4.7
		s2.1-4.7,4.7-4.7s4.7,2.1,4.7,4.7S20.6,20,18,20z"/>
	<circle cx="25.6" cy="7.6" r="1.7"/>
</g>
</svg>
