<?xml version="1.0" encoding="utf-8"?>
<!-- Generator: Adobe Illustrator 20.0.0, SVG Export Plug-In . SVG Version: 6.00 Build 0)  -->
<svg version="1.1" id="Logo_FIXED" xmlns="http://www.w3.org/2000/svg" xmlns:xlink="http://www.w3.org/1999/xlink" x="0px" y="0px"
	 viewBox="0 0 36 30" style="enable-background:new 0 0 36 30;" xml:space="preserve">
<title>Twitter Logo</title>
<path class="svg-twitter-logo" d="M11.7,28.8c12.9,0,20-10.7,20-20c0-0.3,0-0.6,0-0.9c1.4-1,2.6-2.2,3.5-3.6c-1.3,0.6-2.6,0.9-4,1.1
	c1.5-0.9,2.6-2.3,3.1-3.9c-1.4,0.8-2.9,1.4-4.5,1.7c-2.7-2.8-7.1-3-9.9-0.3c-1.8,1.7-2.6,4.3-2,6.7c-5.6-0.3-10.9-3-14.5-7.3
	c-1.9,3.2-0.9,7.3,2.2,9.4c-1.1,0-2.2-0.3-3.2-0.9c0,0,0,0.1,0,0.1c0,3.3,2.4,6.2,5.6,6.9c-1,0.3-2.1,0.3-3.2,0.1
	c0.9,2.9,3.6,4.8,6.6,4.9c-2.5,2-5.6,3-8.7,3c-0.6,0-1.1,0-1.7-0.1C4.2,27.7,7.9,28.8,11.7,28.8"/>
</svg>
